<?xml version="1.0" encoding="utf-8"?>
<!-- Generator: Adobe Illustrator 22.0.1, SVG Export Plug-In . SVG Version: 6.00 Build 0)  -->
<svg version="1.1" id="Ebene_1" xmlns="http://www.w3.org/2000/svg" xmlns:xlink="http://www.w3.org/1999/xlink" x="0px" y="0px"
	 viewBox="0 0 1927.4 1920" style="enable-background:new 0 0 1927.4 1920;" xml:space="preserve">
<style type="text/css">
	.st0{fill:#FDB906;}
	.st1{fill:#E40138;}
	.st2{fill:#1DA4C1;}
</style>
<g>
	<path d="M402,1532.4c14.8,0,21.7,7.6,21.7,18.9c0,15.4-11,28.3-29,28.3c-14.8,0-21.7-7.9-21.7-19.2
		C373,1545,384.3,1532.4,402,1532.4z"/>
	<path d="M496.4,1511c0,20.2,7.6,33.7,27.7,33.7c12.3,0,23.6-4.1,37.8-13.2l11.3,29.9c-14.8,10.4-35.9,18.3-60.2,18.3
		c-40.3,0-62.7-22.4-62.7-63c0-76.5,46.9-104.9,93.9-104.9c18.9,0,36.5,4.1,48.2,12l-7.9,45.7l-33.4,2.2l2.8-15.7
		c0.9-5,0.6-7.3-3.5-8.8c-3.5-1-7.3-1.3-10.7-1.3C513.5,1445.8,496.4,1470.3,496.4,1511z"/>
	<path d="M749.3,1470c0,51.3-21.1,109.6-90.4,109.6c-38.1,0-59.5-20.2-59.5-58.3c0-46.9,18.3-109.6,90.7-109.6
		C712.5,1411.7,749.3,1420.3,749.3,1470z M701.8,1498.4c1.6-10.1,2.2-19.5,2.2-26.8c0-17.6-5.7-28-20.5-28
		c-19.8,0-30.5,17.3-35.9,46.6c-2.2,10.1-2.8,21.1-2.8,29.6c0,16.4,4.7,28,20.2,28C684.8,1547.8,695.8,1532,701.8,1498.4z"/>
	<path d="M829.6,1487l-15.7,88.5h-43.1l21.7-122.8c1.3-7.2,0.3-8.8-5.7-9.8l-9.5-0.6l4.7-26.5h56.7l-3.5,20.8h0.6
		c10.4-15.1,24.6-24.9,48.2-24.9c31.5,0,47.5,16.4,40.9,54.5l-13.5,76.2c-1,6.3,0.3,7.6,6.3,7.6c1.2,0,3.8,0,6-0.3
		c1.3,0,2.5,0,4.1-0.3l-4.7,26.1c-7.9,2.2-19.5,3.8-28,3.8c-25.2,0-31.8-12.6-28-35l12.3-69.3c2.8-15.4,1.2-28.3-15.4-28.3
		C845,1446.7,834.3,1460.2,829.6,1487z"/>
	<path d="M999.9,1511c0,20.2,7.6,33.7,27.7,33.7c12.3,0,23.6-4.1,37.8-13.2l11.3,29.9c-14.8,10.4-35.9,18.3-60.2,18.3
		c-40.3,0-62.7-22.4-62.7-63c0-76.5,46.9-104.9,93.9-104.9c18.9,0,36.5,4.1,48.2,12l-7.9,45.7l-33.4,2.2l2.8-15.7
		c0.9-5,0.6-7.3-3.5-8.8c-3.5-1-7.3-1.3-10.7-1.3C1017,1445.8,999.9,1470.3,999.9,1511z"/>
	<path d="M1238.6,1543.4c-1,5,0.9,6.6,5,6.6c0.9,0,4.4,0,7.2-0.3c1.6,0,3.5,0,5.4-0.3l-4.7,26.5c-6.6,2.2-17.6,3.8-26.1,3.8
		c-18.9,0-26.5-10.7-25.5-23h-0.6c-8.8,14.2-25.5,23-45.3,23c-37.8,0-51-24.9-51-56.7c0-63.6,31.5-111.2,99.2-111.2
		c13.9,0,35.6,2.5,57.3,11.7L1238.6,1543.4z M1199.9,1515l12-68c-4.7-2.2-10.1-3.5-17.3-3.5c-35.6,0-46,46.9-46,76.8
		c0,15.1,3.5,27.7,19.8,27.7C1183.5,1548.1,1195.8,1538,1199.9,1515z"/>
	<path d="M1289.9,1419.3c22.7-4.1,34-18.3,44.7-39.7h24.2l-6.6,36.2h39.4l-6.9,30.5h-37.8l-13.2,77.2c-3.5,17.6,1,22.4,13.2,22.4
		c8.8,0,17.3-3.2,23.3-6l3.5,29.9c-10.1,6-25.2,9.8-42.8,9.8c-49.4,0-46.3-29.6-42.2-53.5l14.2-79.7h-21.4L1289.9,1419.3z"/>
	<path d="M1393.8,1534.2c0-73.1,26.1-129.1,74-189.6l24.9,12.6c-44.4,58.9-64.2,119-64.2,180.1c0,26.8,3.5,60.8,11.3,83.1
		l-27.4,11.3C1402.7,1605.4,1393.8,1568.6,1393.8,1534.2z"/>
	<path d="M1568.6,1442c0,73.4-26.1,129.4-74.3,189.9l-24.9-12.6c44.4-58.9,64.2-119,64.2-180.1c0-26.8-3.5-60.8-11.3-83.5l27.4-11
		C1559.5,1371.1,1568.6,1408,1568.6,1442z"/>
</g>
<g>
	<path d="M822.9,1676.6l-18.7,1.2l4.7-27.1c8.6-4.2,21.7-7.4,35.2-7.4c21.1,0,31.5,10.3,31.5,27c0,14-7.9,24.4-21.6,37.1l-32.4,30.2
		h46.5l-2.9,16.5h-75.5l2.5-14.7l42-40.6c11.3-10.8,16-16.7,16-26c0-7.9-4.5-10.8-13.5-10.8c-3.9,0-6.7,0.5-9.3,1.2
		c-2.5,0.7-2.7,2-3.2,4.7L822.9,1676.6z"/>
	<path d="M967.7,1682.4c0,37.6-14,73.3-50.7,73.3c-21.7,0-33.9-12.5-33.9-38.7c0-45.2,19.5-73.6,51.1-73.6
		C955.1,1643.3,967.7,1654.9,967.7,1682.4z M939.6,1717.1c3.4-10.8,4.7-24.6,4.7-35.4c0-14.8-5.2-19.2-13-19.2
		c-12.8,0-19.9,13.5-23.3,34.6c-1.2,7.2-1.7,13.8-1.7,21.1c0,14,5.6,18.7,13.1,18.7C929.5,1736.8,935.7,1729.4,939.6,1717.1z"/>
	<path d="M1011.2,1668c-7.2,6.2-20.4,11.3-26.6,12.1l-4.2-16.9c14.2-2.7,28-9.9,37.9-17.9h20.6l-16.5,93.2l19,1l-2.7,14.3h-62.8
		l2.5-14l16-1.2c3.2-0.2,4.5-0.7,5.2-5.2L1011.2,1668z"/>
	<path d="M1106.5,1681.9c3.5-3.5,7.4-7.2,7.4-13.5c0-6.2-4.4-9.8-12.3-9.8c-9.4,0-15.3,5.2-15.3,13.1c0,7.6,5.4,11.8,13.3,16
		c16.5,9.4,28.5,17.7,28.5,33c0,16.9-11.8,35.2-43.7,35.2c-25.1,0-33.9-13.3-33.9-26c0-16.5,12.1-26.6,26.3-33.5
		c-6.7-4-13.5-10.8-13.5-22.1c0-16.2,14.8-31.2,40.3-31.2c21.4,0,31,11,31,22.9c0,11.6-8.9,20.4-14.3,23.9L1106.5,1681.9z
		 M1090,1706c-9.6,5.2-17.7,11-17.7,20.9c0,6.6,3.9,12.3,13.8,12.3c11.6,0,17.7-8.3,17.7-16.3C1103.8,1714.7,1096.6,1710,1090,1706z
		"/>
</g>
<g>
	<path class="st0" d="M1029.8,524.3c30.7-2.6,59.8-6.1,87.5-10.8c13.7-2.2,27-4.7,40-7.5c6.4-1.3,13.1-3,18.9-4
		c5.8-0.8,10.6-0.4,16.1-0.9c43.8-3.5,86.8-4.7,131.7-4.7l-27.8,27.8V230l47.5,19.7c-46,46.1-91.7,90.1-139.5,132.9l-36.3,32.2
		c-6.4,5.4-11.7,10.8-17.8,16.1l-23.5,16.8C1095,470.9,1062.6,496.3,1029.8,524.3z M1029.8,524.3c16.2-21.1,32.9-44.6,50.3-70.6
		c4.5-6.5,8.3-13.1,13.3-19.9c6.1-6.9,13.1-13.8,18.9-20.6l37.3-41.4c50.2-55.2,102.7-109.4,154.8-161.4l47.5-47.4V230v294.3v27.8
		l-27.8,0c-53.2,0.1-108.3-1.1-162.6-4.7c-6.8-0.4-14.2,0-20.7-0.9c-6.4-0.9-12-2.7-17.9-4c-11.6-2.7-22.7-5.3-33.6-7.5
		C1068.1,530.4,1048.1,526.9,1029.8,524.3z"/>
	<path class="st1" d="M610.3,852c-2.6-24.9-6.1-51.5-10.8-79.5c-2.2-14.2-4.7-28.6-7.5-43.5c-1.3-7.5-3-14.8-4-22.8
		c-0.8-8.1-0.4-17.2-0.9-25.6c-3.5-67.5-4.8-135.8-4.7-202.3l0-27.8h27.8H984h67.1l-47.4,47.5c-65.2,65.3-132.6,131-201.1,194.5
		l-51.3,47.2c-8.5,7.5-17.1,16.2-25.6,23.9c-8.5,6.7-16.8,12.2-24.9,18.3C668.2,805.8,638,829.1,610.3,852z M610.3,852
		c34.6-39.5,66.7-78.5,96.4-116.7l21.8-28.4c7-7.8,14.1-14.7,21.1-22.8l42.1-46.2c56.1-61.1,113.2-120,172.6-179.2l19.7,47.5H610.3
		l27.8-27.8c0.1,58.1-1.1,114.3-4.7,171.4c-0.4,7.2,0,13.7-0.9,21.1c-0.9,7.5-2.7,15.8-4,23.9c-2.7,16.3-5.3,33-7.5,49.9
		C616.4,778.9,612.9,814.6,610.3,852z"/>
	<path class="st2" d="M1324.1,875.7c-2.6-33.1-6.1-64.5-10.8-94.7c-2.2-14.9-4.7-29.4-7.5-43.6c-1.3-7-3-14.3-4-20.7
		c-0.8-6.4-0.4-11.8-0.9-17.9c-3.5-48.6-4.8-96.3-4.7-145.9l27.8,27.8h-322.8l19.7-47.5c50.9,50.8,99.6,101.2,147.1,153.8l35.8,39.8
		c6,7,11.9,12.8,17.9,19.6l18.6,25.3C1265.8,805.7,1293.7,840.4,1324.1,875.7z M1324.1,875.7c-23.4-18.6-49.4-37.6-77.7-57.4
		c-7.1-5.1-14.3-9.5-21.7-15.1c-7.5-6.7-15-14.3-22.4-20.7l-44.9-40.9c-60-55-118.9-112.2-175.6-169l-47.4-47.5h67.1h322.8h27.8
		l0,27.8c0.1,58-1.1,117.8-4.7,176.8c-0.4,7.3,0,15.4-0.9,22.4c-0.9,7-2.7,13.2-4,19.6c-2.7,12.7-5.3,25.1-7.5,37.1
		C1330.2,832.6,1326.6,855,1324.1,875.7z"/>
	<path class="st2" d="M829.9,449.7c-12.1,2.6-25.9,6.1-40.9,10.8c-7.7,2.2-15.8,4.7-24.2,7.5c-4.3,1.3-8.3,3-13.2,4
		c-4.9,0.9-10.8,0.4-16,0.9c-41.8,3.5-84.5,4.7-125.3,4.7l-27.8,0v-27.8V230V163l47.5,47.4c39.6,39.5,79.6,81.3,117.4,124.1l28,32
		l6.9,8c2.4,2.7,5.5,5.3,7.3,8c3.4,5.3,5.7,10.3,8.6,15.3C809.5,417.5,820,434.8,829.9,449.7z M829.9,449.7
		c-26.6-21.8-52.8-41-78.2-57.9L733,379.6c-2.7-1.9-4.2-3.8-6.4-5.7l-6.8-5.7l-26.9-22.9c-35.4-30.4-68.6-61.9-102.2-95.6l47.5-19.7
		v219.6l-27.8-27.8c32.4-0.1,63,1.1,94.4,4.7c4,0.5,7.2,0,11.5,0.9c4.3,0.9,9.4,2.7,14.3,4c9.9,2.7,20.1,5.3,30.7,7.5
		C782.6,443.6,805.4,447.1,829.9,449.7z"/>
	<path class="st0" d="M926.3,589.4c-26.7,30.4-51.6,60.3-74.8,90.1c-11.5,14.7-22.6,29.3-33.3,43.8c-5.3,7.1-10.5,14.8-15.7,21.3
		c-5.2,6.4-10.6,11.2-15.9,17.1c-42.2,47.2-85.4,92.1-130.8,137.5v-39.3L945.9,1150l-47.5,19.7c-0.1-92.5,1.1-183.2,4.7-274.7
		l2.9-68.9c0.8-11.8,0.6-22.7,1.2-34.3l4.7-38.8C917.9,700.7,922.8,646.1,926.3,589.4z M926.3,589.4c3.4,40,8.3,82.2,14.4,126.5
		c1.4,11.2,3.4,22,4.7,33.8c0.6,12.6,0.5,25.9,1.2,38.2l2.9,76.1c3.5,101.9,4.7,204.7,4.7,305.6l0,67.1l-47.4-47.4L616.4,899.2
		l-19.7-19.7l19.7-19.7c51.3-51.4,104.8-103.1,159.3-152.7c6.8-6.2,13.5-13.4,20.3-19.1c6.9-5.6,13.8-10,20.6-14.9
		c13.5-9.7,26.6-19.2,39.3-28.7C881.2,625.9,904.6,607.4,926.3,589.4z"/>
	<path class="st1" d="M955.2,560.1c26,22.4,53.9,45.3,83.5,68.2c14.9,11.7,30.1,23.5,45.9,35.3c7.8,6.1,15.9,11.6,23.9,18.3
		c8,6.8,15.8,15.2,23.7,22.4c63.4,58.4,125.7,118.9,185.7,179.1l19.7,19.7l-19.7,19.7l-343,343l-47.5,47.5l0-67.1
		c-0.1-118.5,1.1-238.9,4.7-358.5l2.9-89.4l1.2-44.9c1.3-14,3.3-27,4.7-40.4C946.9,659.9,951.8,608.9,955.2,560.1z M955.2,560.1
		c3.4,65.5,8.3,128.9,14.4,190l4.7,45.4l1.2,40.9l2.9,82.2c3.5,109.1,4.7,217.4,4.7,327.6l-47.5-19.7l343-343v39.3
		c-54.2-54.2-106.3-107.9-157.3-163.9c-6.4-7-12.9-12.9-19.2-20.4c-6.3-7.6-12.6-16.4-19-24.6c-12.9-16.7-26.2-33.6-39.9-50.4
		C1015.7,629.2,986.4,594.9,955.2,560.1z"/>
</g>
</svg>
